<?xml version="1.0" standalone="no"?>
<!DOCTYPE svg PUBLIC "-//W3C//DTD SVG 20010904//EN"
 "http://www.w3.org/TR/2001/REC-SVG-20010904/DTD/svg10.dtd">
<svg version="1.0" xmlns="http://www.w3.org/2000/svg"
 width="256.000000pt" height="142.000000pt" viewBox="0 0 256.000000 142.000000"
 preserveAspectRatio="xMidYMid meet">

<g transform="translate(0.000000,142.000000) scale(0.100000,-0.100000)"
fill="#000000" stroke="none">
<path d="M1445 1299 l-120 -49 -33 40 c-19 22 -41 40 -50 40 -8 0 -60 -34
-114 -75 -54 -41 -103 -75 -109 -75 -5 0 -31 16 -56 35 -25 19 -52 35 -59 35
-14 0 -60 -56 -288 -347 -117 -150 -156 -208 -151 -222 6 -21 755 -610 785
-618 12 -3 40 11 77 39 32 25 68 50 81 57 13 7 168 30 345 52 340 42 353 45
342 93 -2 12 -30 230 -61 486 -37 309 -61 470 -70 479 -11 12 -33 12 -159 -3
-80 -10 -147 -17 -149 -15 -2 2 -13 25 -24 52 -26 60 -33 60 -187 -4z m178 -9
c25 -58 15 -57 195 -34 103 12 127 13 137 2 7 -7 36 -212 69 -478 59 -488 61
-506 48 -514 -4 -2 -160 -23 -346 -46 -266 -33 -340 -39 -346 -29 -5 7 -14 58
-20 113 -7 56 -34 272 -60 481 -29 231 -44 384 -38 391 5 7 30 15 56 19 54 9
43 8 193 25 l117 14 -16 24 c-31 47 -53 46 -188 -8 -68 -27 -131 -50 -141 -50
-9 0 -24 -6 -32 -13 -9 -8 -63 -33 -121 -56 -102 -41 -140 -68 -140 -98 0 -9
70 -191 156 -407 139 -347 160 -395 193 -423 27 -24 33 -35 25 -43 -30 -30
-49 -5 -110 145 -290 711 -307 757 -298 772 9 15 604 262 632 263 8 0 23 -22
35 -50z m-343 -11 c26 -36 21 -48 -12 -25 -12 9 -31 16 -41 16 -26 0 -139 -89
-131 -102 5 -7 2 -8 -5 -4 -7 5 -20 1 -29 -7 -9 -8 -40 -26 -68 -40 -28 -14
-58 -37 -67 -50 -8 -13 -52 -51 -96 -83 -79 -58 -97 -81 -92 -117 1 -10 117
-172 257 -360 179 -240 264 -347 289 -361 38 -22 43 -31 20 -40 -19 -7 -19 -7
-188 215 -81 107 -210 277 -287 378 -77 101 -140 189 -140 197 0 17 527 414
551 414 10 0 27 -14 39 -31z m260 -6 c0 -9 -71 -39 -115 -49 -43 -10 -29 0 40
29 67 28 75 30 75 20z m-361 -57 c-23 -21 -83 -58 -68 -42 11 11 84 65 89 66
3 0 -7 -11 -21 -24z m-218 -17 c22 -17 36 -35 33 -41 -4 -5 -15 -1 -28 11 -24
23 -47 26 -76 11 -25 -13 -370 -457 -370 -476 0 -33 28 -59 244 -229 255 -201
350 -283 196 -169 -231 170 -480 369 -480 384 0 8 48 76 106 150 58 74 151
192 206 263 54 70 106 127 115 127 8 0 33 -14 54 -31z m269 -51 c0 -13 -160
-83 -190 -83 -8 -1 -14 -6 -13 -13 2 -7 -2 -12 -7 -12 -14 0 -12 16 4 29 10 8
169 79 204 90 1 1 2 -5 2 -11z m-360 -22 c0 -2 -8 -10 -17 -17 -16 -13 -17
-12 -4 4 13 16 21 21 21 13z m80 1 c0 -5 -97 -77 -104 -77 -4 0 6 16 21 35 19
23 30 30 35 22 6 -9 8 -9 8 0 0 6 8 14 18 16 9 3 18 5 20 6 1 0 2 0 2 -2z
m299 -89 c7 -46 14 -100 17 -122 l5 -38 -38 6 c-54 10 -118 43 -159 81 -31 30
-34 36 -22 54 12 20 13 20 33 2 11 -10 34 -26 50 -35 30 -17 30 -17 5 1 -46
34 -81 65 -77 69 4 4 158 62 168 63 4 1 12 -36 18 -81z m-315 -6 c3 -5 -25
-31 -62 -58 -37 -26 -70 -53 -74 -59 -4 -5 -8 -6 -8 -1 0 5 -7 2 -17 -5 -9 -8
-15 -9 -12 -3 3 9 157 133 166 134 1 0 4 -4 7 -8z m83 -9 c-4 -3 -3 -11 2 -17
11 -14 62 -148 58 -152 -2 -2 -18 31 -36 74 -46 105 -45 102 -30 102 7 0 9 -3
6 -7z m-44 -171 c-36 -3 -118 20 -148 42 -17 12 -12 17 50 65 l68 51 33 -77
32 -78 -35 -3z m176 49 c17 -8 29 -16 27 -20 -2 -3 12 -7 31 -8 54 -3 63 -9
62 -45 l-1 -33 -7 30 c-3 17 -14 31 -23 33 -17 3 -17 1 -1 -42 9 -25 24 -47
33 -49 8 -3 0 -5 -17 -6 -25 -1 -33 3 -34 17 -1 16 -2 16 -6 0 -2 -10 -11 -18
-20 -18 -13 0 -13 -2 -2 -16 9 -11 15 -12 17 -5 3 8 9 6 19 -6 8 -10 12 -12 8
-5 -4 7 1 12 13 12 31 0 41 -33 57 -185 3 -28 2 -36 -5 -25 -8 12 -10 10 -10
-9 0 -17 4 -22 16 -17 11 4 14 1 10 -12 -3 -10 -2 -32 3 -50 6 -19 6 -32 1
-32 -6 0 -5 -11 0 -26 6 -14 10 -35 9 -47 -1 -20 -1 -20 -8 3 -14 44 -157 390
-209 508 -48 108 -49 112 -23 89 16 -13 42 -29 60 -36z m-315 -26 c10 -7 53
-22 95 -31 78 -18 101 -29 101 -47 0 -18 -141 -2 -187 22 -35 17 -42 26 -41
46 3 29 6 30 32 10z m-27 -71 c30 -46 22 -43 -17 6 -17 22 -26 38 -18 34 7 -3
23 -21 35 -40z m-103 10 c5 -13 4 -14 -7 -6 -8 7 -18 8 -22 4 -5 -4 -5 -1 -1
6 10 17 23 15 30 -4z m48 -58 c18 -21 23 -33 15 -38 -14 -9 -123 -9 -155 0
l-22 7 26 37 c26 36 29 37 68 32 29 -4 49 -15 68 -38z m120 31 c7 -8 19 -12
26 -9 6 2 15 -3 18 -12 3 -9 10 -16 15 -16 4 0 6 7 3 15 -11 27 2 16 36 -32
19 -27 26 -41 16 -33 -17 13 -18 13 -14 -5 2 -11 11 -19 21 -19 18 2 23 -11 8
-21 -5 -3 -31 22 -56 55 -26 34 -50 59 -52 56 -3 -3 -2 -11 3 -19 5 -7 1 -4
-9 8 -10 11 -26 26 -35 33 -9 6 -11 12 -5 12 7 0 18 -6 25 -13z m109 -34 c13
-16 12 -17 -3 -4 -10 7 -18 15 -18 17 0 8 8 3 21 -13z m-260 -72 c62 3 93 0
96 -7 5 -16 -31 -24 -112 -24 -75 1 -109 14 -111 43 -2 17 -1 17 17 2 15 -14
35 -17 110 -14z m22 -71 c4 0 5 5 2 10 -10 16 5 12 36 -10 17 -13 26 -26 23
-35 -7 -17 -24 -9 -64 27 -14 13 -21 20 -16 16 6 -5 14 -8 19 -8z m142 -42 c5
4 5 1 1 -6 -6 -10 -11 -10 -22 -1 -8 6 -18 9 -21 5 -4 -4 -1 -11 7 -16 8 -6
12 -10 8 -10 -3 0 -13 -2 -20 -5 -10 -4 -14 2 -13 22 1 15 -4 35 -9 43 -6 8 5
2 25 -13 20 -15 39 -24 44 -19z m193 2 c7 -11 11 -20 9 -20 -2 0 -12 9 -22 20
-10 11 -14 20 -9 20 5 0 15 -9 22 -20z m-147 -57 l24 -28 -30 25 c-16 14 -32
26 -34 28 -2 1 0 2 6 2 5 0 20 -12 34 -27z m-21 -8 c0 -2 -8 -1 -17 2 -13 5
-15 3 -9 -12 7 -18 6 -18 -16 0 -13 11 -25 22 -28 24 -3 2 3 1 13 -2 9 -4 17
-2 17 4 0 6 7 6 20 -1 11 -6 20 -13 20 -15z m35 -35 c10 -11 14 -20 9 -20 -12
1 -44 25 -44 34 0 12 17 6 35 -14z m65 -65 c14 -19 14 -19 -2 -6 -10 7 -18 18
-18 24 0 6 1 8 3 6 1 -2 9 -13 17 -24z m81 -192 c13 -16 12 -17 -3 -4 -10 7
-18 15 -18 17 0 8 8 3 21 -13z m130 -93 c5 0 14 -10 20 -22 l11 -23 -21 23
c-12 12 -25 22 -29 22 -4 0 -27 19 -52 41 l-45 41 54 -41 c29 -23 57 -41 62
-41z"/>
<path d="M1760 1220 c-146 -20 -133 -25 22 -8 97 10 109 9 133 -6 15 -10 24
-20 20 -24 -3 -4 -10 0 -14 7 -7 11 -11 10 -20 -5 -11 -17 -11 -17 -5 4 5 20
3 23 -13 19 -10 -3 -46 -9 -80 -12 -35 -4 -63 -10 -63 -14 0 -4 26 -3 58 3 52
8 62 7 86 -10 22 -16 26 -25 22 -52 -3 -18 -1 -30 3 -27 5 2 14 -37 20 -88 32
-250 70 -591 68 -594 -2 -2 -18 13 -36 32 -36 40 -109 91 -117 82 -3 -3 12
-15 34 -26 40 -20 122 -105 122 -125 0 -6 -8 -21 -18 -33 -15 -19 -35 -24
-157 -38 -77 -9 -186 -23 -243 -30 -96 -14 -105 -13 -127 3 -18 13 -22 23 -18
41 4 15 2 22 -4 18 -6 -4 -10 8 -11 28 -1 37 -32 281 -62 502 -11 79 -20 148
-20 155 0 7 14 -5 32 -26 31 -38 112 -96 132 -96 6 1 -2 8 -19 17 -56 29 -105
75 -131 119 l-27 45 22 23 c26 28 26 32 1 32 -11 0 -22 -7 -25 -14 -4 -10 0
-12 10 -8 9 3 13 2 10 -4 -3 -6 -13 -10 -21 -10 -8 0 -12 -5 -9 -10 7 -11 9
-39 19 -175 l5 -80 -15 90 c-36 227 -27 118 27 -330 30 -252 45 -345 56 -357
22 -24 52 -23 352 15 247 31 255 33 274 59 l20 26 -53 414 c-29 227 -52 421
-52 430 1 16 -43 60 -57 57 -3 -1 -62 -9 -131 -19z m195 -186 c8 -71 14 -138
14 -149 -2 -29 -37 203 -38 249 -2 73 9 30 24 -100z m22 -226 c-3 -7 -5 -2 -5
12 0 14 2 19 5 13 2 -7 2 -19 0 -25z m-630 -30 c-3 -7 -5 -2 -5 12 0 14 2 19
5 13 2 -7 2 -19 0 -25z m640 -50 c-3 -8 -6 -5 -6 6 -1 11 2 17 5 13 3 -3 4
-12 1 -19z m-630 -30 c-3 -8 -6 -5 -6 6 -1 11 2 17 5 13 3 -3 4 -12 1 -19z
m640 -50 c-3 -8 -6 -5 -6 6 -1 11 2 17 5 13 3 -3 4 -12 1 -19z m-630 -30 c-3
-8 -6 -5 -6 6 -1 11 2 17 5 13 3 -3 4 -12 1 -19z m10 -80 c-3 -8 -6 -5 -6 6
-1 11 2 17 5 13 3 -3 4 -12 1 -19z m10 -90 c-3 -7 -5 -2 -5 12 0 14 2 19 5 13
2 -7 2 -19 0 -25z"/>
<path d="M1578 1193 c12 -2 30 -2 40 0 9 3 -1 5 -23 4 -22 0 -30 -2 -17 -4z"/>
<path d="M1503 1183 c9 -2 25 -2 35 0 9 3 1 5 -18 5 -19 0 -27 -2 -17 -5z"/>
<path d="M1363 1171 c-36 -7 -73 -34 -73 -53 0 -7 10 -1 23 14 18 22 34 29 92
36 43 6 55 9 30 9 -22 0 -55 -2 -72 -6z"/>
<path d="M1692 1171 l28 -6 -46 -47 c-25 -27 -43 -48 -39 -48 4 0 25 20 47 45
32 36 43 43 54 34 11 -9 7 -19 -21 -54 -19 -23 -35 -47 -35 -53 0 -6 -6 -13
-12 -15 -10 -4 -10 -6 0 -6 7 -1 16 7 19 17 4 9 21 35 40 58 l33 41 -23 21
c-13 12 -34 21 -48 21 -23 -1 -23 -2 3 -8z"/>
<path d="M1613 1163 c9 -2 25 -2 35 0 9 3 1 5 -18 5 -19 0 -27 -2 -17 -5z"/>
<path d="M1480 1150 c-16 -5 -2 -6 35 -3 33 3 62 7 64 9 8 7 -74 2 -99 -6z"/>
<path d="M1292 1080 c0 -14 2 -19 5 -12 2 6 2 18 0 25 -3 6 -5 1 -5 -13z"/>
<path d="M1886 1063 c-6 -14 -5 -15 5 -6 7 7 10 15 7 18 -3 3 -9 -2 -12 -12z"/>
<path d="M1851 1006 l-24 -31 28 27 c16 15 27 29 24 31 -2 3 -15 -10 -28 -27z"/>
<path d="M1578 988 c-29 -39 -41 -58 -35 -58 2 0 18 20 36 45 37 51 36 62 -1
13z"/>
<path d="M1639 993 c-13 -16 -12 -17 4 -4 16 13 21 21 13 21 -2 0 -10 -8 -17
-17z"/>
<path d="M1594 939 c-17 -18 -22 -28 -12 -24 14 6 55 55 45 55 -2 0 -16 -14
-33 -31z"/>
<path d="M1785 944 c-18 -16 -22 -22 -9 -15 18 9 53 42 43 41 -2 -1 -17 -12
-34 -26z"/>
<path d="M1770 846 c0 -2 8 -10 18 -17 15 -13 16 -12 3 4 -13 16 -21 21 -21
13z"/>
<path d="M1539 813 l-24 -28 28 24 c25 23 32 31 24 31 -2 0 -14 -12 -28 -27z"/>
<path d="M1559 803 l-24 -28 28 24 c25 23 32 31 24 31 -2 0 -14 -12 -28 -27z"/>
<path d="M1410 800 c0 -4 27 -14 60 -23 56 -16 60 -19 54 -42 -8 -33 11 -87
41 -115 29 -27 30 -27 38 22 5 36 5 37 -21 32 -23 -5 -29 -1 -39 27 -14 37 -6
53 21 43 14 -5 15 -9 4 -16 -9 -7 -7 -8 9 -5 14 3 33 -3 48 -15 13 -10 34 -20
45 -21 11 -1 20 -5 20 -9 0 -4 7 -8 15 -8 8 0 15 -5 15 -11 0 -5 -6 -7 -12 -4
-7 4 -4 -1 7 -9 18 -15 18 -17 2 -33 -9 -9 -20 -13 -24 -9 -5 5 -2 11 5 13 6
3 10 9 6 14 -9 15 -21 10 -27 -11 -7 -26 -37 -26 -37 -1 0 11 -4 23 -10 26 -6
4 -10 -7 -10 -24 0 -17 5 -31 10 -31 6 0 10 -5 10 -10 0 -19 -54 2 -89 34 -21
20 -29 24 -21 10 7 -11 27 -30 44 -42 63 -43 198 -21 234 37 10 17 16 19 32
11 10 -5 24 -10 30 -10 19 0 1 17 -25 24 -13 3 -64 25 -112 48 -48 23 -89 41
-91 40 -1 -1 -19 5 -40 14 -70 30 -192 65 -192 54z m350 -152 c0 -5 4 -6 10
-3 6 4 7 -1 3 -12 -6 -17 -5 -17 15 1 29 25 28 5 0 -22 -26 -23 -78 -40 -78
-24 0 13 29 24 42 16 5 -3 3 8 -6 24 -20 38 -20 43 -1 36 8 -4 15 -10 15 -16z
m-76 -69 c-27 -11 -34 -10 -34 0 0 11 31 20 44 13 5 -3 1 -9 -10 -13z"/>
<path d="M1806 794 c-7 -19 10 -44 30 -44 16 0 37 37 29 50 -10 16 -52 11 -59
-6z"/>
<path d="M1655 781 c-4 -12 -4 -25 -1 -28 3 -4 6 2 6 13 1 16 3 15 15 -6 8
-14 14 -20 14 -15 0 6 -6 21 -13 34 l-14 24 -7 -22z"/>
<path d="M1798 745 c12 -26 5 -45 -16 -46 -14 0 -14 -2 -2 -6 8 -3 19 -11 23
-17 6 -7 7 -4 3 7 -3 9 -1 17 4 17 15 0 12 24 -6 46 -15 19 -15 19 -6 -1z"/>
<path d="M1630 673 c0 -9 6 -13 14 -10 7 3 18 1 24 -5 6 -6 12 -6 16 0 3 6 -8
15 -24 21 -25 8 -30 7 -30 -6z"/>
<path d="M1436 647 c3 -10 9 -15 12 -12 3 3 0 11 -7 18 -10 9 -11 8 -5 -6z"/>
<path d="M1451 544 c0 -11 3 -14 6 -6 3 7 2 16 -1 19 -3 4 -6 -2 -5 -13z"/>
<path d="M1735 550 c-14 -5 -2 -9 35 -12 30 -3 56 -5 58 -3 8 7 -76 21 -93 15z"/>
<path d="M1591 521 c-37 -20 -131 -109 -131 -125 0 -5 19 12 41 38 41 46 75
69 134 93 22 8 25 12 10 12 -11 0 -35 -8 -54 -18z"/>
<path d="M1779 475 c-26 -36 -35 -42 -50 -35 -12 7 -20 6 -24 -1 -4 -6 -13 -8
-20 -5 -16 6 -42 -23 -42 -46 0 -14 3 -15 14 -7 7 6 10 15 7 20 -7 12 46 31
69 25 12 -3 27 9 50 39 29 41 52 53 52 29 0 -12 -55 -83 -101 -131 -18 -18
-29 -33 -26 -33 3 0 1 -5 -6 -12 -9 -9 -15 -9 -24 0 -7 7 -19 12 -27 12 -9 -1
-3 -8 13 -16 33 -19 31 -21 130 104 47 60 55 76 46 87 -19 22 -26 19 -61 -30z"/>
<path d="M1931 504 c0 -11 3 -14 6 -6 3 7 2 16 -1 19 -3 4 -6 -2 -5 -13z"/>
<path d="M1461 444 c0 -11 3 -14 6 -6 3 7 2 16 -1 19 -3 4 -6 -2 -5 -13z"/>
<path d="M1579 433 c-13 -16 -12 -17 4 -4 16 13 21 21 13 21 -2 0 -10 -8 -17
-17z"/>
<path d="M1905 400 c21 -22 41 -40 44 -40 3 0 -13 18 -34 40 -21 22 -41 40
-44 40 -3 0 13 -18 34 -40z"/>
<path d="M1566 391 c-9 -10 -16 -22 -16 -28 0 -12 50 -36 58 -28 3 3 1 5 -4 5
-6 0 -19 6 -29 14 -16 12 -17 16 -6 30 12 14 15 14 37 -1 13 -8 24 -13 24 -10
0 2 -11 12 -24 20 -22 15 -25 15 -40 -2z"/>
<path d="M1529 383 c-13 -16 -12 -17 4 -4 16 13 21 21 13 21 -2 0 -10 -8 -17
-17z"/>
<path d="M1445 369 c-4 -6 -5 -12 -2 -15 2 -3 7 2 10 11 7 17 1 20 -8 4z"/>
<path d="M1127 859 c4 -13 8 -18 11 -10 2 7 -1 18 -6 23 -8 8 -9 4 -5 -13z"/>
<path d="M1156 845 c4 -8 10 -15 15 -15 4 0 6 7 3 15 -4 8 -10 15 -15 15 -4 0
-6 -7 -3 -15z"/>
<path d="M1170 801 c0 -6 5 -13 10 -16 6 -3 10 1 10 9 0 9 -4 16 -10 16 -5 0
-10 -4 -10 -9z"/>
<path d="M1176 727 c3 -10 9 -15 12 -12 3 3 0 11 -7 18 -10 9 -11 8 -5 -6z"/>
<path d="M1210 706 c0 -9 5 -16 10 -16 6 0 10 4 10 9 0 6 -4 13 -10 16 -5 3
-10 -1 -10 -9z"/>
<path d="M1190 693 c0 -4 7 -17 15 -27 8 -11 15 -29 15 -40 0 -16 2 -18 9 -7
5 8 7 21 3 30 -6 18 -42 56 -42 44z"/>
<path d="M1247 683 c-4 -6 2 -22 14 -34 16 -20 18 -20 11 -4 -5 11 -11 27 -14
35 -3 9 -7 10 -11 3z"/>
<path d="M1250 616 c0 -8 5 -18 10 -21 6 -3 10 1 10 9 0 8 -4 18 -10 21 -5 3
-10 -1 -10 -9z"/>
<path d="M1244 568 c8 -18 24 -59 37 -91 12 -32 24 -55 27 -53 2 3 -5 26 -17
52 -12 25 -20 49 -17 51 6 7 -20 59 -34 68 -6 4 -4 -9 4 -27z"/>
<path d="M1276 567 c3 -10 9 -15 12 -12 3 3 0 11 -7 18 -10 9 -11 8 -5 -6z"/>
<path d="M940 742 c0 -5 7 -15 15 -22 8 -7 15 -8 15 -2 0 5 -7 15 -15 22 -8 7
-15 8 -15 2z"/>
<path d="M760 600 c0 -12 28 -25 36 -17 3 3 -4 10 -15 17 -15 7 -21 7 -21 0z"/>
</g>
</svg>
